:FULLY-SPECIFIED
:FORCE-ALL-JOINTS-BE-3DOF
:DEGREES
918
root -0.205654 14.1347 -36.2926 12.6518 -27.4805 -16.1324
lfemur -63.964 31.0584 -0.349477
ltibia 69.3661 -0 0
lfoot -6.57071 -8.79759 0.0075667
ltoes -10.5461 0 0
rfemur 5.61653 -8.52017 12.8483
rtibia 38.6221 -0 0
rfoot -22.7145 -28.3516 -0.00293724
rtoes -28.0876 0 0
lowerback 11.405 0.0398932 6.59605
upperback -1.68489 1.38506 5.49779
thorax -8.22917 0.487955 1.90382
lowerneck -3.78214 7.80188 2.31434
upperneck 4.2316 10.3177 -0.689492
head 2.14037 5.16225 -0.283822
lclavicle 3.04141e-14 -7.31528e-14 0
lhumerus 12.3425 -8.76189 70.0451
lradius 24.1109 -0 0
lwrist -28.3957 0 0
lhand -29.1979 30.8577 0.00416629
lfingers 7.12502 -0 0
lthumb -2.54262 60.7795 0.00456279
rclavicle 3.04141e-14 -7.31528e-14 0
rhumerus -76.729 21.6384 -96.6029
rradius 110.57 -0 0
rwrist -67.9091 0 0
rhand -11.3339 -24.2718 -4.19501e-05
rfingers 7.12502 -0 0
rthumb 14.6988 -53.7307 -4.01661e-05
919
root -0.196398 14.1262 -36.2831 12.6361 -27.4646 -16.1925
lfemur -64.1178 31.1733 -0.423139
ltibia 69.6207 -0 0
lfoot -6.61682 -8.90285 0.00800796
ltoes -10.1419 0 0
rfemur 5.70028 -8.55761 12.7917
rtibia 38.6155 -0 0
rfoot -22.7422 -28.2836 -0.00310852
rtoes -28.231 0 0
lowerback 11.3698 0.0147292 6.63976
upperback -1.66887 1.35745 5.58187
thorax -8.19363 0.475103 1.97444
lowerneck -3.78686 7.81198 2.36297
upperneck 4.31847 10.3305 -0.725632
head 2.17561 5.16859 -0.299774
lclavicle 3.04141e-14 -7.31528e-14 0
lhumerus 12.3022 -10.8573 70.3681
lradius 24.8244 -0 0
lwrist -26.5101 0 0
lhand -28.8676 30.8658 0.00440937
lfingers 7.12502 -0 0
lthumb -2.22354 60.7886 0.00482899
rclavicle 3.04141e-14 -7.31528e-14 0
rhumerus -76.7311 21.631 -96.5575
rradius 110.559 -0 0
rwrist -67.8669 0 0
rhand -11.3324 -24.2899 -4.43962e-05
rfingers 7.12502 -0 0
rthumb 14.7003 -53.7487 -4.25082e-05
920
root -0.187141 14.1177 -36.2737 12.62 -27.4483 -16.254
lfemur -64.2755 31.2907 -0.498945
ltibia 69.8812 -0 0
lfoot -6.66398 -9.0105 0.00837164
ltoes -9.72857 0 0
rfemur 5.78599 -8.59582 12.7337
rtibia 38.6088 -0 0
rfoot -22.7706 -28.2141 -0.00324969
rtoes -28.3776 0 0
lowerback 11.3337 -0.01098 6.68448
upperback -1.65253 1.32919 5.66785
thorax -8.1573 0.461914 2.04667
lowerneck -3.79168 7.82232 2.4127
upperneck 4.40732 10.3437 -0.762576
head 2.21165 5.17508 -0.316085
lclavicle 3.04141e-14 -7.31528e-14 0
lhumerus 12.2481 -13.0001 70.7027
lradius 25.5541 -0 0
lwrist -24.5816 0 0
lhand -28.5296 30.8741 0.00460971
lfingers 7.12502 -0 0
lthumb -1.89719 60.798 0.00504839
rclavicle 3.04141e-14 -7.31528e-14 0
rhumerus -76.7333 21.6235 -96.511
rradius 110.548 -0 0
rwrist -67.8237 0 0
rhand -11.3309 -24.3084 -4.64124e-05
rfingers 7.12502 -0 0
rthumb 14.7017 -53.7671 -4.44386e-05
921
root -0.177885 14.1092 -36.2642 12.6035 -27.4318 -16.3165
lfemur -64.4363 31.41 -0.576549
ltibia 70.1461 -0 0
lfoot -6.71197 -9.12001 0.00865068
ltoes -9.30804 0 0
rfemur 5.87323 -8.6346 12.6746
rtibia 38.6019 -0 0
rfoot -22.7994 -28.1434 -0.003358
rtoes -28.5269 0 0
lowerback 11.297 -0.0371056 6.73
upperback -1.63595 1.30041 5.7553
thorax -8.12036 0.448449 2.12014
lowerneck -3.79657 7.83283 2.4633
upperneck 4.4977 10.3572 -0.800141
head 2.24831 5.18169 -0.332675
lclavicle 3.04141e-14 -7.31528e-14 0
lhumerus 12.1792 -15.1797 71.0484
lradius 26.2965 -0 0
lwrist -22.6197 0 0
lhand -28.1859 30.8825 0.00476344
lfingers 7.12502 -0 0
lthumb -1.56519 60.8076 0.00521675
rclavicle 3.04141e-14 -7.31528e-14 0
rhumerus -76.7356 21.6158 -96.4637
rradius 110.536 -0 0
rwrist -67.7797 0 0
rhand -11.3293 -24.3273 -4.79593e-05
rfingers 7.12502 -0 0
rthumb 14.7032 -53.7858 -4.59198e-05
922
root -0.168628 14.1007 -36.2547 12.5869 -27.415 -16.3797
lfemur -64.5995 31.5305 -0.655596
ltibia 70.4143 -0 0
lfoot -6.76053 -9.23086 0.00883973
ltoes -8.8824 0 0
rfemur 5.96158 -8.67377 12.6148
rtibia 38.5949 -0 0
rfoot -22.8286 -28.0719 -0.00343138
rtoes -28.6779 0 0
lowerback 11.2598 -0.0635192 6.77608
upperback -1.61921 1.27125 5.84382
thorax -8.08299 0.434772 2.19449
lowerneck -3.80151 7.84348 2.51452
upperneck 4.58918 10.3709 -0.838141
head 2.28541 5.18839 -0.349462
lclavicle 3.04141e-14 -7.31528e-14 0
lhumerus 12.0948 -17.3853 71.405
lradius 27.048 -0 0
lwrist -20.634 0 0
lhand -27.8379 30.891 0.00486759
lfingers 7.12502 -0 0
lthumb -1.22916 60.8172 0.0053308
rclavicle 3.04141e-14 -7.31528e-14 0
rhumerus -76.7378 21.608 -96.4159
rradius 110.524 -0 0
rwrist -67.7353 0 0
rhand -11.3278 -24.3463 -4.90073e-05
rfingers 7.12502 -0 0
rthumb 14.7047 -53.8048 -4.69232e-05
923
root -0.159372 14.0922 -36.2453 12.5701 -27.3982 -16.4435
lfemur -64.7642 31.6516 -0.735725
ltibia 70.6845 -0 0
lfoot -6.80945 -9.3425 0.00893516
ltoes -8.45369 0 0
rfemur 6.05062 -8.71312 12.5545
rtibia 38.5879 -0 0
rfoot -22.858 -27.9998 -0.00346843
rtoes -28.83 0 0
lowerback 11.2223 -0.0900929 6.82251
upperback -1.6024 1.24186 5.93296
thorax -8.04536 0.420948 2.26937
lowerneck -3.80647 7.85421 2.5661
upperneck 4.68131 10.3847 -0.876395
head 2.32278 5.19516 -0.366367
lclavicle 3.04141e-14 -7.31528e-14 0
lhumerus 11.9938 -19.6063 71.7724
lradius 27.8048 -0 0
lwrist -18.6339 0 0
lhand -27.4874 30.8996 0.00492017
lfingers 7.12502 -0 0
lthumb -0.890698 60.827 0.00538838
rclavicle 3.04141e-14 -7.31528e-14 0
rhumerus -76.7401 21.6002 -96.3677
rradius 110.512 -0 0
rwrist -67.6905 0 0
rhand -11.3262 -24.3655 -4.95363e-05
rfingers 7.12502 -0 0
rthumb 14.7062 -53.8239 -4.74297e-05
924
root -0.150115 14.0836 -36.2358 12.5533 -27.3813 -16.5073
lfemur -64.9298 31.7729 -0.81656
ltibia 70.9552 -0 0
lfoot -6.85848 -9.45442 0.00893516
ltoes -8.02395 0 0
rfemur 6.13993 -8.75248 12.4939
rtibia 38.5809 -0 0
rfoot -22.8875 -27.9275 -0.00346843
rtoes -28.9825 0 0
lowerback 11.1847 -0.1167 6.86907
upperback -1.58559 1.21238 6.0223
thorax -8.00767 0.407041 2.34442
lowerneck -3.81144 7.86497 2.61781
upperneck 4.77365 10.3987 -0.914719
head 2.36024 5.20195 -0.383307
lclavicle 3.04141e-14 -7.31528e-14 0
lhumerus 11.8758 -21.8319 72.1504
lradius 28.5635 -0 0
lwrist -16.629 0 0
lhand -27.1362 30.9082 0.00492017
lfingers 7.12502 -0 0
lthumb -0.551432 60.8367 0.00538838
rclavicle 3.04141e-14 -7.31528e-14 0
rhumerus -76.7425 21.5924 -96.3194
rradius 110.5 -0 0
rwrist -67.6456 0 0
rhand -11.3246 -24.3848 -4.95363e-05
rfingers 7.12502 -0 0
rthumb 14.7078 -53.843 -4.74297e-05
